<?xml version="1.0"?>
<svg version="1.1" xmlns="http://www.w3.org/2000/svg" width="220px" height="100px" style="border: dashed 2px #aaa"><path fill="#ffd700" d="M6.2,79.9l3.1,0l0-21.15q0-4.2,3.2-7.4t7.4-3.2q4.1,0,7.4,3.2q3.15,3.15,3.15,7.4l0,21.15l3.2,0l0-21.15q0-4.3,3.2-7.4q3.2-3.2,7.35-3.2q4.2,0,7.4,3.2t3.2,7.4l0,21.15l3.1,0l0-21.15q0-5.7-4-9.7t-9.7-4q-3.75,0-7.05,2.05q-3.35,2.1-4.8,5.35q-1.95-3.35-5.25-5.35q-3.45-2.05-7.2-2.05q-5.65,0-9.65,4q-4.05,4.05-4.05,9.7l0,21.15z M98.084,62.45l3.75,0q3.8,0,6.3-2.5t2.5-6.3q0-3.35-2.5-6q-2.65-2.75-6.3-2.75l-15.65,0l-3.1,0l0,35.1l3.1,0l0-17.55l8.15,0l10.65,17.55l3.75,0z M86.184,59.35l0-11.3l15.65,0q2.3,0,4.05,1.65q1.65,1.65,1.65,3.95q0,2.4-1.65,4.05q-1.75,1.65-4.05,1.65l-15.65,0z M131.576,45q-5.65,0-9.7,4.05q-4.1,4.1-4.1,9.75l0,7.55q0,5.55,4.1,9.65t9.7,4.1q5.65,0,9.75-4.1q4.05-4.05,4.05-9.65l0-7.55q0-5.7-4.05-9.75t-9.75-4.05z M142.276,58.8l0,7.55q0,4.55-3.2,7.65q-3.15,3-7.5,3t-7.45-3q-3.2-3.1-3.2-7.65l0-7.55q0-4.2,3.2-7.5q3.2-3.2,7.45-3.2q4.2,0,7.5,3.2q3.2,3.3,3.2,7.5z M178.768,80l0-3.15l-8.9,0q-6.2,0-10.4-4.2t-4.2-10.4q0-5.7,4.2-9.8t10.4-4.1l8.9,0l0-3.25l-8.9,0q-7.55,0-12.65,5q-5.1,4.95-5.1,12.15q0,7.65,5.1,12.65q5,5.1,12.65,5.1l8.9,0z M207.96,80l5.05,0l-22.35-17.85l22.35-17.2l-5.05,0l-19.2,15.3l0-15.3l-3.15,0l0,35.05l3.15,0l0-15.3z"/><path fill="#" d=""/></svg>
