<svg xmlns="http://www.w3.org/2000/svg" xmlns:xlink="http://www.w3.org/1999/xlink" viewBox="0,0,256,256" width="32px" height="32px" fill-rule="nonzero"><g fill="#ffffff" fill-rule="nonzero" stroke="none" stroke-width="1" stroke-linecap="butt" stroke-linejoin="miter" stroke-miterlimit="10" stroke-dasharray="" stroke-dashoffset="0" font-family="none" font-weight="none" font-size="none" text-anchor="none" style="mix-blend-mode: normal"><g transform="scale(8,8)"><path d="M16.51563,4c-5.78,0 -9.51562,3.11359 -9.51562,7.93359c0,4.773 4.28895,6.19572 7.12695,7.13672c1.276,0.423 2.86205,0.9478 2.87305,1.4668c-0.008,0.401 -0.95744,0.46289 -1.52344,0.46289c-1.886,0 -4.7782,-0.77948 -7.0332,-1.89648l-1.44336,-0.71484v7.79688l0.61133,0.25586c2.347,0.986 5.09597,1.55359 7.54297,1.55859c6.165,0 9.8457,-2.84161 9.8457,-7.59961c0,-5.192 -4.40822,-6.60311 -7.32422,-7.53711c-1.066,-0.342 -2.67578,-0.85806 -2.67578,-1.28906c0,-0.229 0.00047,-0.57422 1.23047,-0.57422c1.849,0 4.42181,0.76538 6.25781,1.85938l1.51172,0.90234v-8.21484l-0.63672,-0.24805c-2.156,-0.838 -4.58666,-1.29883 -6.84766,-1.29883zM16.51563,6c1.799,0 3.72137,0.32769 5.48438,0.92969v3.43164c-1.886,-0.839 -4.04653,-1.36133 -5.76953,-1.36133c-2.915,0 -3.23047,1.80022 -3.23047,2.57422c0,1.891 1.97541,2.52436 4.06641,3.19336c3.475,1.113 5.93359,2.16681 5.93359,5.63281c0,5.053 -5.48675,5.59961 -7.84375,5.59961c-1.981,-0.004 -4.18925,-0.4232 -6.15625,-1.1582v-3.30469c1.993,0.797 4.46556,1.46289 6.47656,1.46289c3.054,0 3.52044,-1.53403 3.52344,-2.45703v-0.00586v-0.00586c-0.008,-1.956 -2.06514,-2.63737 -4.24414,-3.35937c-3.37,-1.118 -5.75586,-2.14728 -5.75586,-5.23828c0,-3.661 2.87963,-5.93359 7.51563,-5.93359z"></path></g></g></svg>