<?xml version="1.0"?>
<svg version="1.1" xmlns="http://www.w3.org/2000/svg" width="400px" height="200px" style="border: dashed 2px #aaa"><path fill="#ffffff" d="M51.8466796875,125.248046875q0-1.0595703125,0.7265625-1.34716796875t1.57421875-0.28759765625q1.4833984375,0,2.5126953125,1.33203125t1.95263671875,2.92138671875t1.83154296875,2.92138671875t2.1494140625,1.33203125q0.9384765625,0,1.71044921875-0.46923828125t1.33203125-1.1806640625t0.86279296875-1.6044921875t0.302734375-1.77099609375q0-2.30078125-0.92333984375-4.7529296875t-2.361328125-5.0556640625t-3.04248046875-5.328125t-3.02734375-5.5400390625t-2.361328125-5.73681640625t-0.9384765625-5.88818359375q0-4.4501953125,2.6640625-6.90234375t7.0234375-2.4521484375q1.4833984375,0,2.9970703125,0.423828125t2.78515625,1.271484375t2.07373046875,2.0888671875t0.80224609375,2.90625q0,0.544921875-0.80224609375,0.71142578125t-1.16552734375,0.16650390625q-0.544921875,0-1.1806640625-0.13623046875t-0.8173828125-0.74169921875t-0.5146484375-1.392578125t-0.83251953125-1.46826171875t-1.1806640625-1.1806640625t-1.49853515625-0.49951171875q-1.3623046875,0-2.31591796875,0.56005859375t-1.5439453125,1.49853515625t-0.8779296875,2.10400390625t-0.28759765625,2.40673828125q0,2.90625,0.9990234375,5.85791015625t2.482421875,5.873046875t3.22412109375,5.76708984375t3.22412109375,5.5400390625t2.482421875,5.267578125t0.9990234375,4.8740234375q0,2.05859375-0.96875,3.4814453125t-2.4521484375,2.31591796875t-3.28466796875,1.3017578125t-3.52685546875,0.40869140625q-1.8466796875,0-3.7841796875-0.74169921875t-3.4814453125-2.04345703125t-2.54296875-3.04248046875t-0.9990234375-3.76904296875z M79.082783203125,88.8896484375q0-2.119140625,0.7265625-2.845703125t2.0283203125-0.7265625q0.36328125,0,0.77197265625,0.060546875t0.77197265625,0.181640625q2.0283203125-0.3935546875,3.8447265625-0.3935546875q2.9365234375,0,5.328125,1.029296875q3.8447265625,1.634765625,6.357421875,4.84375t3.693359375,7.5380859375t1.1806640625,8.8701171875q0,2.54296875-0.34814453125,5.2978515625t-1.34716796875,5.1162109375q-0.8779296875,2.119140625-2.421875,4.43505859375t-3.49658203125,4.3896484375t-4.2080078125,3.6328125t-4.55615234375,2.10400390625l0,0.2421875q0,0.60546875-0.31787109375,0.98388671875t-0.77197265625,0.5751953125t-1.04443359375,0.25732421875t-1.10498046875,0.060546875q-0.302734375,0-0.86279296875-0.060546875t-1.08984375-0.22705078125t-0.89306640625-0.43896484375t-0.36328125-0.7568359375q0-5.509765625-0.28759765625-11.03466796875t-0.65087890625-11.0498046875t-0.65087890625-11.03466796875t-0.28759765625-11.0498046875z M84.804462890625,87.345703125q0.302734375,2.90625,0.3935546875,5.79736328125t0.2724609375,5.79736328125q0.484375,7.5078125,1.1201171875,14.93994140625t0.7568359375,14.93994140625q2.90625-1.9072265625,4.97998046875-4.359375t3.40576171875-5.328125t1.95263671875-6.03955078125t0.62060546875-6.52392578125q0-2.421875-0.423828125-5.328125t-1.453125-5.6005859375t-2.77001953125-4.8740234375t-4.34423828125-3.1181640625q-0.544921875-0.181640625-1.31689453125-0.302734375t-2.46728515625-0.12109375q-0.181640625,0-0.36328125,0.060546875t-0.36328125,0.060546875z"/><path fill="#" d=""/></svg>
