<?xml version="1.0" standalone="no"?>
<!DOCTYPE svg PUBLIC "-//W3C//DTD SVG 20010904//EN"
 "http://www.w3.org/TR/2001/REC-SVG-20010904/DTD/svg10.dtd">
<svg version="1.0" xmlns="http://www.w3.org/2000/svg"
 width="300.000000pt" height="310.000000pt" viewBox="0 0 300.000000 310.000000"
 preserveAspectRatio="xMidYMid meet">
<metadata>
Created by potrace 1.10, written by Peter Selinger 2001-2011
</metadata>
<g transform="translate(0.000000,310.000000) scale(0.100000,-0.100000)"
fill="#000000" stroke="none">
<path d="M1640 3059 c-36 -5 -151 -6 -256 -2 -173 5 -191 4 -197 -11 -4 -9 -3
-14 2 -11 12 7 17 -11 31 -98 12 -80 31 -138 72 -227 17 -35 31 -70 32 -78 3
-16 67 -72 77 -67 4 3 22 -12 41 -33 19 -20 51 -50 72 -66 l39 -29 40 42 c31
33 42 40 49 29 7 -9 8 -7 3 9 -3 12 -1 24 5 28 5 3 15 16 22 28 10 21 -63 -40
-103 -85 -21 -23 -43 -24 -35 -2 5 13 3 14 -7 6 -9 -8 -21 -2 -46 24 -19 18
-47 44 -64 56 -60 45 -83 76 -119 167 -21 51 -38 98 -38 105 0 7 -7 27 -16 45
-9 18 -14 34 -12 36 2 2 46 -3 98 -11 121 -18 172 -18 290 1 153 25 158 28
166 87 7 49 24 50 24 0 0 -12 7 -25 15 -28 8 -4 12 -11 8 -17 -3 -5 -2 -7 4
-4 5 3 36 -12 69 -33 32 -22 65 -40 73 -40 12 0 13 -27 8 -162 -3 -90 -8 -171
-12 -180 -6 -16 -22 -18 -115 -18 -110 0 -140 5 -140 22 0 5 5 6 10 3 6 -3 10
-1 10 5 0 7 -7 10 -15 6 -19 -7 -19 3 5 93 23 85 24 101 9 101 -5 0 -7 -4 -4
-10 3 -5 2 -10 -4 -10 -5 0 -9 -15 -9 -32 1 -62 -2 -68 -34 -83 -18 -8 -26
-14 -18 -14 32 2 35 -3 38 -61 2 -69 8 -64 -135 -120 -78 -31 -83 -35 -99 -76
-9 -23 -14 -48 -12 -56 3 -7 8 2 13 21 12 53 41 77 110 88 48 7 129 57 135 83
5 21 10 22 125 25 66 1 129 6 140 9 19 7 20 17 23 173 1 92 5 169 7 172 3 2
24 -5 48 -16 46 -22 158 -58 170 -55 4 1 7 -2 7 -6 0 -4 8 -8 18 -9 28 -2 74
-13 93 -23 10 -6 27 -10 38 -10 12 0 21 -6 21 -14 0 -8 9 -17 19 -21 11 -3 30
-20 44 -38 14 -18 43 -51 66 -74 23 -23 41 -44 41 -46 0 -2 26 -31 58 -64 42
-44 218 -231 250 -268 2 -2 -4 -16 -13 -32 -11 -17 -11 -21 -2 -10 18 21 33
22 41 0 7 -17 -29 -63 -49 -63 -7 0 -27 -19 -46 -41 -133 -161 -206 -239 -224
-239 -29 0 -26 23 7 58 62 66 193 228 168 207 -14 -11 -27 -23 -30 -27 -45
-58 -186 -208 -196 -208 -7 0 -17 6 -21 13 -4 6 -21 20 -38 29 -34 19 -42 52
-50 198 -2 47 -6 114 -9 150 -3 36 -5 78 -6 93 0 16 -5 27 -12 25 -16 -6 -19
-39 -7 -70 8 -19 8 -36 0 -61 -10 -28 -9 -42 5 -76 11 -29 14 -55 10 -82 -4
-23 -1 -69 5 -103 10 -50 19 -67 48 -93 20 -18 41 -32 48 -33 6 0 25 -11 41
-25 17 -14 37 -25 45 -25 9 0 48 37 88 83 40 45 119 127 176 183 l103 100 -30
29 c-17 16 -30 34 -30 39 0 6 -15 25 -34 41 -18 17 -122 128 -231 248 -109
120 -208 225 -221 233 -12 8 -81 31 -154 50 -198 52 -277 86 -363 154 -41 33
-82 71 -91 85 -18 28 -49 30 -176 14z m30 -37 c1 -16 2 -16 13 0 7 9 30 19 50
23 36 7 37 7 37 -24 0 -34 -10 -38 -140 -61 -134 -24 -425 -2 -404 31 3 5 10
7 15 4 5 -4 9 5 9 19 0 23 4 26 35 26 21 0 35 -5 35 -12 0 -10 2 -10 9 0 6 10
19 11 47 6 21 -5 47 -8 57 -7 9 0 17 -4 17 -9 0 -5 5 -6 12 -2 18 12 72 11 80
-1 5 -6 8 -5 8 4 0 11 3 11 17 0 11 -10 14 -10 9 -1 -4 7 -2 12 6 12 8 0 20
-6 27 -12 11 -11 13 -10 7 2 -4 8 0 6 8 -4 16 -20 16 -20 16 0 0 37 30 42 30
6z"/>
<path d="M1139 2980 c-19 -19 -46 -40 -60 -46 -13 -6 -55 -26 -92 -43 -38 -18
-152 -59 -253 -92 l-184 -61 -69 -91 c-68 -91 -85 -131 -31 -70 16 17 31 29
35 25 3 -4 3 1 0 10 -4 11 1 20 14 27 11 6 26 23 33 39 14 29 64 43 54 15 -3
-8 -1 -11 4 -8 6 3 10 15 10 25 0 19 11 24 65 34 11 1 34 9 50 16 17 7 34 12
39 11 4 -1 14 4 22 10 8 6 14 9 14 6 0 -3 14 -1 30 4 17 6 30 15 30 19 0 4 10
6 22 2 15 -4 19 -2 13 7 -5 10 -2 11 15 6 15 -5 28 -1 43 13 12 11 39 25 59
31 21 7 40 17 43 22 4 5 14 5 26 -1 15 -8 19 -7 19 4 0 7 15 27 34 44 31 27
63 71 54 75 -2 1 -19 -14 -39 -33z"/>
<path d="M1026 2861 c-4 -5 -2 -11 3 -13 6 -1 11 -30 12 -63 1 -33 7 -71 12
-85 6 -14 12 -29 13 -35 1 -5 3 -13 4 -17 5 -17 8 -29 9 -49 0 -11 5 -18 10
-15 5 4 1 38 -10 78 -10 40 -22 103 -25 141 -6 62 -15 80 -28 58z"/>
<path d="M1430 2860 l-45 -7 53 -1 c33 -1 51 2 47 8 -3 6 -7 9 -8 8 -1 0 -22
-4 -47 -8z"/>
<path d="M1761 2852 c-1 -13 -6 -32 -11 -43 -8 -13 -8 -25 0 -37 10 -15 10
-15 9 3 -1 11 1 32 5 47 5 15 6 33 3 40 -3 7 -6 3 -6 -10z"/>
<path d="M1360 2823 c0 -45 14 -57 59 -56 35 2 41 -1 41 -18 0 -28 60 -27 67
2 4 15 11 19 28 15 35 -9 57 14 52 54 l-4 35 -1 -37 -2 -38 -110 0 -110 0 0
35 c0 19 -4 35 -10 35 -5 0 -10 -12 -10 -27z"/>
<path d="M1510 2814 c0 -16 16 -19 24 -5 3 5 16 7 29 4 12 -4 18 -2 14 3 -14
15 -67 13 -67 -2z"/>
<path d="M362 2515 c-12 -19 -27 -35 -32 -35 -6 0 -10 -5 -10 -10 0 -7 6 -7
19 0 14 7 22 7 26 -1 10 -15 -26 -51 -47 -46 -18 5 -44 -18 -62 -56 -7 -12
-23 -27 -37 -34 -13 -7 -35 -23 -49 -37 -21 -23 -22 -26 -5 -26 33 0 105 41
133 76 15 19 31 34 36 34 5 0 24 11 42 25 43 33 60 87 37 121 -8 13 -18 24
-22 24 -3 0 -16 -16 -29 -35z"/>
<path d="M1330 2528 c-30 -11 -81 -22 -114 -25 -32 -4 -52 -9 -45 -13 8 -4 41
-4 74 1 111 14 112 14 146 -38 29 -47 32 -29 4 27 -8 16 -10 33 -4 48 10 25
11 25 -61 0z"/>
<path d="M1612 2320 c-16 -111 -19 -169 -10 -164 5 3 8 29 8 59 0 30 5 77 11
104 6 28 9 59 7 68 -2 10 -9 -20 -16 -67z"/>
<path d="M1549 2366 c-12 -25 -21 -31 -44 -26 -6 1 -6 -3 1 -10 6 -6 18 -8 26
-5 16 6 42 54 34 63 -3 2 -11 -7 -17 -22z"/>
<path d="M641 2367 c-1 -11 -6 -15 -12 -11 -8 5 -9 2 -1 -11 5 -10 7 -36 5
-57 -4 -22 -1 -38 5 -38 14 0 24 82 13 111 -7 18 -10 20 -10 6z"/>
<path d="M1584 2322 c-5 -15 -7 -54 -4 -87 l6 -60 6 85 c3 47 5 86 4 87 -1 1
-6 -10 -12 -25z"/>
<path d="M562 2315 c-12 -27 -19 -172 -8 -182 3 -4 7 18 7 48 l1 54 8 -45 c5
-25 13 -57 19 -72 6 -15 13 -75 16 -133 6 -96 5 -107 -14 -131 -11 -15 -19
-29 -17 -33 3 -4 -13 -8 -36 -8 -22 -1 -46 -7 -53 -13 -24 -20 -40 -11 -120
68 -30 28 -58 52 -63 52 -5 0 -15 11 -22 25 -7 14 -17 25 -21 25 -5 0 -18 10
-31 23 -13 12 -54 50 -92 84 -64 57 -68 63 -52 78 9 9 16 20 16 25 0 5 14 23
31 40 17 17 29 33 26 36 -7 8 -67 -37 -67 -50 -1 -6 -14 -26 -30 -45 l-29 -34
77 -63 c96 -79 319 -294 324 -314 4 -12 9 -12 33 4 16 11 38 20 50 21 11 2 37
10 57 18 52 22 62 61 49 202 -21 236 -34 345 -41 345 -4 0 -12 -11 -18 -25z"/>
<path d="M1873 2318 c3 -9 0 -36 -7 -60 -7 -23 -16 -60 -19 -80 -5 -33 -3 -38
13 -38 10 0 25 7 33 15 13 13 17 13 28 -1 8 -10 9 -18 2 -22 -14 -10 -33 -70
-27 -87 7 -17 -26 -76 -38 -69 -4 3 -8 0 -8 -5 0 -25 28 -8 45 27 10 22 20 32
22 24 3 -8 0 -19 -6 -25 -16 -16 -14 -25 7 -23 13 1 17 -7 16 -36 -1 -21 3
-38 7 -38 5 0 9 23 9 50 0 28 -4 50 -8 50 -4 0 -13 18 -18 40 -6 22 -7 37 -3
34 5 -3 9 3 9 13 0 11 4 23 10 29 6 6 5 18 -4 35 -10 19 -10 27 -1 36 9 9 15
9 24 0 8 -8 11 -8 11 0 0 15 -69 55 -81 47 -6 -3 -9 -20 -7 -36 2 -18 -2 -33
-9 -35 -8 -3 -13 4 -13 18 0 31 22 103 35 111 6 5 3 14 -9 25 -16 16 -18 16
-13 1z"/>
<path d="M1542 2247 c-1 -10 -6 -16 -11 -12 -6 3 -6 -7 0 -27 11 -40 11 -48 1
-48 -5 0 -17 18 -27 40 -21 46 -41 66 -30 29 4 -13 20 -41 36 -63 28 -38 28
-38 34 -14 4 14 5 44 2 69 -2 24 -4 36 -5 26z"/>
<path d="M1967 2247 c-8 -21 9 -41 28 -33 13 5 16 2 11 -9 -3 -9 3 -24 15 -36
11 -11 17 -24 14 -29 -4 -6 0 -13 8 -16 12 -4 14 -19 8 -57 0 -5 -6 -5 -13 -1
-7 4 -8 3 -4 -4 4 -7 4 -17 0 -23 -5 -8 -8 -8 -13 0 -7 11 -14 1 -39 -59 -10
-25 -11 -25 -11 8 -1 17 -6 32 -12 32 -6 0 -8 -8 -4 -20 3 -10 7 -42 7 -70 1
-27 5 -50 10 -50 4 0 8 7 8 15 0 8 5 15 10 15 6 0 10 17 11 38 1 51 13 90 22
75 5 -7 3 -22 -3 -33 -12 -22 -5 -44 11 -35 5 4 9 17 9 29 0 15 7 26 20 29 17
4 20 14 20 55 0 28 -4 53 -9 57 -5 3 -15 22 -21 43 -12 35 -55 92 -71 92 -4 0
-9 -6 -12 -13z"/>
<path d="M1599 2120 c-3 -20 -11 -26 -44 -31 l-40 -6 35 -1 c46 -2 63 10 58
39 l-4 24 -5 -25z"/>
<path d="M2410 1866 c0 -19 -4 -38 -10 -41 -5 -3 -10 -12 -10 -18 0 -7 4 -6
10 3 7 11 10 8 10 -16 0 -17 -3 -33 -6 -37 -8 -7 -7 -487 1 -597 3 -47 7 -189
9 -317 2 -127 7 -237 12 -244 5 -8 3 -10 -6 -4 -8 5 -11 4 -6 -3 3 -6 8 -121
10 -257 l3 -245 -81 -1 c-45 -1 -103 -3 -129 -4 -26 -1 -50 1 -52 5 -5 8 -153
5 -162 -3 -3 -4 -12 -2 -19 4 -8 7 -19 7 -31 1 -12 -7 -37 -7 -73 0 -65 12
-458 1 -485 -13 -5 -3 -23 -5 -40 -4 -16 1 -34 -1 -40 -5 -15 -12 -240 -10
-277 1 -18 6 -48 13 -67 15 -19 3 -42 9 -51 14 -11 6 -29 6 -47 0 -15 -5 -46
-12 -68 -15 -22 -3 -51 -8 -65 -10 -92 -15 -88 -16 -95 15 -10 46 5 355 22
465 9 54 9 250 0 408 -3 54 -1 100 4 103 5 3 7 10 3 15 -8 14 -8 190 0 210 4
8 0 31 -8 50 -12 28 -15 84 -15 253 1 120 -2 220 -5 224 -9 8 -7 -258 4 -708
9 -348 8 -417 -7 -580 -10 -102 -18 -252 -18 -335 l0 -150 58 -3 c32 -2 93 4
135 13 79 16 95 15 291 -14 64 -10 204 -4 410 18 85 9 805 6 903 -3 l36 -4 0
187 c0 102 2 202 3 221 2 33 0 102 -18 550 -4 102 -8 342 -8 534 0 270 -3 350
-12 353 -9 3 -13 -7 -13 -31z"/>
<path d="M1840 1848 c0 -63 35 -82 42 -23 2 19 0 35 -4 35 -4 0 -9 -15 -9 -32
l-2 -33 -4 30 c-6 40 -23 57 -23 23z"/>
<path d="M1913 1854 c-3 -9 0 -20 8 -25 12 -8 12 -10 -1 -18 -18 -12 -7 -26
14 -18 17 7 11 36 -8 49 -7 5 -7 8 2 8 6 0 12 5 12 10 0 16 -20 12 -27 -6z"/>
<path d="M1970 1830 c0 -22 4 -40 9 -40 12 0 25 56 16 70 -13 22 -25 8 -25
-30z"/>
<path d="M2028 1825 c-4 -34 5 -48 15 -22 3 7 6 4 6 -6 1 -10 5 -16 10 -13 5
3 7 15 4 26 -3 11 -9 18 -13 15 -5 -3 -6 4 -3 15 3 11 1 20 -5 20 -5 0 -12
-16 -14 -35z"/>
</g>
</svg>
